<?xml version="1.0" encoding="UTF-8" standalone="no"?>
<!-- Created with Inkscape (http://www.inkscape.org/) -->

<svg
   xmlns:dc="http://purl.org/dc/elements/1.1/"
   xmlns:cc="http://creativecommons.org/ns#"
   xmlns:rdf="http://www.w3.org/1999/02/22-rdf-syntax-ns#"
   xmlns:svg="http://www.w3.org/2000/svg"
   xmlns="http://www.w3.org/2000/svg"
   xmlns:sodipodi="http://sodipodi.sourceforge.net/DTD/sodipodi-0.dtd"
   xmlns:inkscape="http://www.inkscape.org/namespaces/inkscape"
   width="100"
   height="100"
   viewBox="0 0 26.458333 26.458334"
   version="1.1"
   id="svg8"
   inkscape:version="0.92.1 r15371"
   sodipodi:docname="Pin Checklist Icon.svg">
  <defs
     id="defs2" />
  <sodipodi:namedview
     id="base"
     pagecolor="#ffffff"
     bordercolor="#666666"
     borderopacity="1.0"
     inkscape:pageopacity="0.0"
     inkscape:pageshadow="2"
     inkscape:zoom="5.6"
     inkscape:cx="45.259882"
     inkscape:cy="36.860802"
     inkscape:document-units="mm"
     inkscape:current-layer="layer1"
     showgrid="false"
     units="px"
     inkscape:window-width="1278"
     inkscape:window-height="1368"
     inkscape:window-x="-7"
     inkscape:window-y="0"
     inkscape:window-maximized="0" />
  <metadata
     id="metadata5">
    <rdf:RDF>
      <cc:Work
         rdf:about="">
        <dc:format>image/svg+xml</dc:format>
        <dc:type
           rdf:resource="http://purl.org/dc/dcmitype/StillImage" />
        <dc:title />
      </cc:Work>
    </rdf:RDF>
  </metadata>
  <g
     inkscape:label="Layer 1"
     inkscape:groupmode="layer"
     id="layer1"
     transform="translate(0,-270.54165)">
    <g
       id="g4486"
       transform="rotate(29.755963,12.506412,281.38934)">
      <path
         inkscape:connector-curvature="0"
         id="path4485"
         d="m 9.4277344,272.26172 a 0.92613427,0.92613427 0 0 0 -0.9257813,0.92773 c 0.0017,1.04892 0.5782521,1.96338 1.3867188,2.67383 v 5.01367 c -0.017861,0.007 -0.0369,0.0124 -0.054687,0.0195 a 0.92613427,0.92613427 0 0 0 -0.00586,0.002 c -2.1340523,0.87969 -3.6214002,2.61065 -3.6210938,4.62695 a 0.92613427,0.92613427 0 0 0 0.9257813,0.92578 h 6.0957036 6.097656 a 0.92613427,0.92613427 0 0 0 0.925781,-0.92578 c 1.67e-4,-2.0164 -1.486832,-3.74737 -3.621094,-4.62695 a 0.92613427,0.92613427 0 0 0 -0.0039,0 c -0.0032,-0.001 -0.0065,-0.003 -0.0098,-0.004 v -4.92187 c 0.88884,-0.71918 1.527895,-1.67244 1.529296,-2.78321 a 0.92613427,0.92613427 0 0 0 -0.925781,-0.92773 h -1.529297 -4.876953 z m 1.2656246,1.85156 h 0.121094 4.876953 0.277344 c -0.177099,0.25532 -0.4133,0.49894 -0.753906,0.70313 a 0.92613427,0.92613427 0 0 0 -0.449219,0.79492 v 5.93359 a 0.92613427,0.92613427 0 0 0 0.650391,0.88477 c 0.175817,0.0549 0.346883,0.1162 0.511718,0.18359 1.165902,0.48158 1.775412,1.21734 2.115235,1.98633 H 13.228516 8.4160156 c 0.3392745,-0.76793 0.9462634,-1.50275 2.1093754,-1.98438 l 0.0039,-0.002 c 0.177027,-0.0711 0.361481,-0.13658 0.550781,-0.19336 a 0.92613427,0.92613427 0 0 0 0.660156,-0.88672 v -6.01367 A 0.92613427,0.92613427 0 0 0 11.324213,274.748 c -0.286097,-0.18892 -0.473722,-0.40959 -0.63086,-0.63477 z"
         style="color:#000000;font-style:normal;font-variant:normal;font-weight:normal;font-stretch:normal;font-size:medium;line-height:normal;font-family:sans-serif;font-variant-ligatures:normal;font-variant-position:normal;font-variant-caps:normal;font-variant-numeric:normal;font-variant-alternates:normal;font-feature-settings:normal;text-indent:0;text-align:start;text-decoration:none;text-decoration-line:none;text-decoration-style:solid;text-decoration-color:#000000;letter-spacing:normal;word-spacing:normal;text-transform:none;writing-mode:lr-tb;direction:ltr;text-orientation:mixed;dominant-baseline:auto;baseline-shift:baseline;text-anchor:start;white-space:normal;shape-padding:0;clip-rule:nonzero;display:inline;overflow:visible;visibility:visible;opacity:1;isolation:auto;mix-blend-mode:normal;color-interpolation:sRGB;color-interpolation-filters:linearRGB;solid-color:#000000;solid-opacity:1;vector-effect:none;fill:#000000;fill-opacity:1;fill-rule:nonzero;stroke:none;stroke-width:1.85208333;stroke-linecap:square;stroke-linejoin:round;stroke-miterlimit:4;stroke-dasharray:none;stroke-dashoffset:0;stroke-opacity:1;paint-order:markers fill stroke;color-rendering:auto;image-rendering:auto;shape-rendering:auto;text-rendering:auto;enable-background:accumulate" />
      <path
         sodipodi:nodetypes="cccccc"
         inkscape:connector-curvature="0"
         id="rect4516"
         d="m 12.567708,285.61343 h 1.322918 v 8.75795 l -0.66146,1.58914 -0.661458,-1.58914 z"
         style="opacity:1;fill:#000000;fill-opacity:1;stroke:none;stroke-width:1.85200012;stroke-linecap:square;stroke-linejoin:miter;stroke-miterlimit:4;stroke-dasharray:none;stroke-dashoffset:0;stroke-opacity:1;paint-order:markers fill stroke" />
    </g>
  </g>
</svg>
